<mxfile host="65bd71144e">
    <diagram id="zK5Rt0_C5VV_g-sW-Zkf" name="Page-1">
        <mxGraphModel dx="1105" dy="1048" grid="1" gridSize="10" guides="1" tooltips="1" connect="1" arrows="1" fold="1" page="1" pageScale="1" pageWidth="1169" pageHeight="827" math="0" shadow="0">
            <root>
                <mxCell id="0"/>
                <mxCell id="1" parent="0"/>
                <mxCell id="2" value="" style="endArrow=classic;html=1;" parent="1" edge="1">
                    <mxGeometry width="50" height="50" relative="1" as="geometry">
                        <mxPoint x="344" y="520" as="sourcePoint"/>
                        <mxPoint x="694" y="520" as="targetPoint"/>
                    </mxGeometry>
                </mxCell>
                <mxCell id="3" value="" style="endArrow=classic;html=1;" parent="1" edge="1">
                    <mxGeometry width="50" height="50" relative="1" as="geometry">
                        <mxPoint x="344" y="520" as="sourcePoint"/>
                        <mxPoint x="344" y="160" as="targetPoint"/>
                    </mxGeometry>
                </mxCell>
                <mxCell id="4" value="" style="endArrow=classic;html=1;" parent="1" edge="1">
                    <mxGeometry width="50" height="50" relative="1" as="geometry">
                        <mxPoint x="344" y="520" as="sourcePoint"/>
                        <mxPoint x="204" y="720" as="targetPoint"/>
                    </mxGeometry>
                </mxCell>
                <mxCell id="5" value="&lt;font style=&quot;font-size: 14px;&quot;&gt;z&lt;sub&gt;0&lt;/sub&gt;&lt;/font&gt;" style="text;html=1;strokeColor=none;fillColor=none;align=center;verticalAlign=middle;whiteSpace=wrap;rounded=0;" parent="1" vertex="1">
                    <mxGeometry x="334" y="150" width="60" height="30" as="geometry"/>
                </mxCell>
                <mxCell id="8" value="&lt;font style=&quot;font-size: 14px;&quot;&gt;x&lt;sub&gt;0&lt;/sub&gt;&lt;/font&gt;" style="text;html=1;strokeColor=none;fillColor=none;align=center;verticalAlign=middle;whiteSpace=wrap;rounded=0;" parent="1" vertex="1">
                    <mxGeometry x="154" y="720" width="60" height="30" as="geometry"/>
                </mxCell>
                <mxCell id="9" value="&lt;font style=&quot;font-size: 14px;&quot;&gt;=y&lt;sub&gt;0&lt;/sub&gt;&lt;/font&gt;" style="text;html=1;strokeColor=none;fillColor=none;align=center;verticalAlign=middle;whiteSpace=wrap;rounded=0;" parent="1" vertex="1">
                    <mxGeometry x="660" y="530" width="60" height="30" as="geometry"/>
                </mxCell>
                <mxCell id="10" value="" style="endArrow=classic;html=1;strokeColor=#0000CC;" parent="1" edge="1">
                    <mxGeometry width="50" height="50" relative="1" as="geometry">
                        <mxPoint x="344" y="520" as="sourcePoint"/>
                        <mxPoint x="274" y="220" as="targetPoint"/>
                    </mxGeometry>
                </mxCell>
                <mxCell id="12" value="" style="endArrow=classic;html=1;strokeColor=#0000CC;" parent="1" edge="1">
                    <mxGeometry width="50" height="50" relative="1" as="geometry">
                        <mxPoint x="344" y="520" as="sourcePoint"/>
                        <mxPoint x="264" y="770" as="targetPoint"/>
                    </mxGeometry>
                </mxCell>
                <mxCell id="13" value="" style="endArrow=classic;html=1;strokeColor=#0000CC;" parent="1" edge="1">
                    <mxGeometry width="50" height="50" relative="1" as="geometry">
                        <mxPoint x="344" y="520" as="sourcePoint"/>
                        <mxPoint x="634" y="520" as="targetPoint"/>
                    </mxGeometry>
                </mxCell>
                <mxCell id="14" value="&lt;font color=&quot;#000099&quot;&gt;y&lt;sub&gt;1&lt;/sub&gt;&lt;/font&gt;" style="text;html=1;strokeColor=none;fillColor=none;align=center;verticalAlign=middle;whiteSpace=wrap;rounded=0;fontSize=14;" parent="1" vertex="1">
                    <mxGeometry x="620" y="530" width="60" height="30" as="geometry"/>
                </mxCell>
                <mxCell id="15" value="&lt;font color=&quot;#000099&quot;&gt;z&lt;sub&gt;1&lt;/sub&gt;&lt;/font&gt;" style="text;html=1;strokeColor=none;fillColor=none;align=center;verticalAlign=middle;whiteSpace=wrap;rounded=0;fontSize=14;" parent="1" vertex="1">
                    <mxGeometry x="254" y="190" width="60" height="30" as="geometry"/>
                </mxCell>
                <mxCell id="16" value="&lt;font color=&quot;#000099&quot;&gt;= x&lt;sub&gt;1&lt;/sub&gt;&lt;/font&gt;" style="text;html=1;strokeColor=none;fillColor=none;align=center;verticalAlign=middle;whiteSpace=wrap;rounded=0;fontSize=14;" parent="1" vertex="1">
                    <mxGeometry x="254" y="740" width="60" height="30" as="geometry"/>
                </mxCell>
                <mxCell id="18" value="" style="curved=1;endArrow=classic;html=1;strokeColor=#0000CC;fontSize=14;fontColor=#000099;" parent="1" edge="1">
                    <mxGeometry width="50" height="50" relative="1" as="geometry">
                        <mxPoint x="344" y="360" as="sourcePoint"/>
                        <mxPoint x="314" y="400" as="targetPoint"/>
                        <Array as="points">
                            <mxPoint x="334" y="350"/>
                            <mxPoint x="314" y="350"/>
                        </Array>
                    </mxGeometry>
                </mxCell>
                <mxCell id="19" value="" style="endArrow=classic;html=1;strokeColor=#FF0000;" parent="1" edge="1">
                    <mxGeometry width="50" height="50" relative="1" as="geometry">
                        <mxPoint x="344" y="520" as="sourcePoint"/>
                        <mxPoint x="184" y="260" as="targetPoint"/>
                    </mxGeometry>
                </mxCell>
                <mxCell id="20" value="" style="endArrow=classic;html=1;strokeColor=#FF0000;" parent="1" edge="1">
                    <mxGeometry width="50" height="50" relative="1" as="geometry">
                        <mxPoint x="344" y="520" as="sourcePoint"/>
                        <mxPoint x="594" y="400" as="targetPoint"/>
                    </mxGeometry>
                </mxCell>
                <mxCell id="21" value="" style="endArrow=classic;html=1;strokeColor=#FF0000;" parent="1" edge="1">
                    <mxGeometry width="50" height="50" relative="1" as="geometry">
                        <mxPoint x="344" y="520" as="sourcePoint"/>
                        <mxPoint x="284" y="710" as="targetPoint"/>
                    </mxGeometry>
                </mxCell>
                <mxCell id="22" value="" style="curved=1;endArrow=classic;html=1;strokeColor=#FF0000;fontSize=14;fontColor=#000099;" parent="1" edge="1">
                    <mxGeometry width="50" height="50" relative="1" as="geometry">
                        <mxPoint x="311.5" y="380" as="sourcePoint"/>
                        <mxPoint x="260" y="380" as="targetPoint"/>
                        <Array as="points">
                            <mxPoint x="301.5" y="370"/>
                            <mxPoint x="281.5" y="370"/>
                        </Array>
                    </mxGeometry>
                </mxCell>
                <mxCell id="23" value="&lt;font color=&quot;#ff0000&quot;&gt;z&lt;sub style=&quot;&quot;&gt;2&lt;/sub&gt;&lt;/font&gt;" style="text;html=1;strokeColor=none;fillColor=none;align=center;verticalAlign=middle;whiteSpace=wrap;rounded=0;fontSize=14;" parent="1" vertex="1">
                    <mxGeometry x="144" y="240" width="60" height="30" as="geometry"/>
                </mxCell>
                <mxCell id="24" value="&lt;font color=&quot;#ff0000&quot;&gt;y&lt;sub style=&quot;&quot;&gt;2&lt;/sub&gt;&lt;/font&gt;" style="text;html=1;strokeColor=none;fillColor=none;align=center;verticalAlign=middle;whiteSpace=wrap;rounded=0;fontSize=14;" parent="1" vertex="1">
                    <mxGeometry x="584" y="399" width="60" height="30" as="geometry"/>
                </mxCell>
                <mxCell id="25" value="&lt;font color=&quot;#ff0000&quot;&gt;x&lt;sub style=&quot;&quot;&gt;2&lt;/sub&gt;&lt;/font&gt;" style="text;html=1;strokeColor=none;fillColor=none;align=center;verticalAlign=middle;whiteSpace=wrap;rounded=0;fontSize=14;" parent="1" vertex="1">
                    <mxGeometry x="214" y="740" width="60" height="30" as="geometry"/>
                </mxCell>
                <mxCell id="26" value="" style="endArrow=none;html=1;strokeColor=#000000;fontSize=14;fontColor=#FF0000;" parent="1" edge="1">
                    <mxGeometry width="50" height="50" relative="1" as="geometry">
                        <mxPoint x="344" y="520" as="sourcePoint"/>
                        <mxPoint x="114" y="520" as="targetPoint"/>
                    </mxGeometry>
                </mxCell>
                <mxCell id="27" value="" style="endArrow=none;html=1;strokeColor=#FF0000;fontSize=14;fontColor=#FF0000;" parent="1" edge="1">
                    <mxGeometry width="50" height="50" relative="1" as="geometry">
                        <mxPoint x="144" y="590" as="sourcePoint"/>
                        <mxPoint x="344" y="520" as="targetPoint"/>
                    </mxGeometry>
                </mxCell>
                <mxCell id="28" value="" style="endArrow=none;dashed=1;html=1;strokeColor=#FF0000;fontSize=14;fontColor=#FF0000;" parent="1" edge="1">
                    <mxGeometry width="50" height="50" relative="1" as="geometry">
                        <mxPoint x="204" y="570" as="sourcePoint"/>
                        <mxPoint x="204" y="290" as="targetPoint"/>
                    </mxGeometry>
                </mxCell>
                <mxCell id="30" value="" style="curved=1;endArrow=classic;html=1;strokeColor=#FF00FF;fontSize=14;fontColor=#000099;" parent="1" edge="1">
                    <mxGeometry width="50" height="50" relative="1" as="geometry">
                        <mxPoint x="294" y="590" as="sourcePoint"/>
                        <mxPoint x="244" y="550" as="targetPoint"/>
                        <Array as="points">
                            <mxPoint x="269" y="580"/>
                        </Array>
                    </mxGeometry>
                </mxCell>
                <mxCell id="31" value="" style="endArrow=none;dashed=1;html=1;strokeColor=#FF0000;fontSize=14;fontColor=#FF0000;" parent="1" edge="1">
                    <mxGeometry width="50" height="50" relative="1" as="geometry">
                        <mxPoint x="339" y="273" as="sourcePoint"/>
                        <mxPoint x="209" y="293" as="targetPoint"/>
                    </mxGeometry>
                </mxCell>
                <mxCell id="32" value="" style="curved=1;endArrow=classic;html=1;strokeColor=#FF00FF;fontSize=14;fontColor=#000099;" parent="1" edge="1">
                    <mxGeometry width="50" height="50" relative="1" as="geometry">
                        <mxPoint x="346" y="320" as="sourcePoint"/>
                        <mxPoint x="236" y="340" as="targetPoint"/>
                        <Array as="points">
                            <mxPoint x="296" y="300"/>
                            <mxPoint x="256" y="320"/>
                        </Array>
                    </mxGeometry>
                </mxCell>
                <mxCell id="33" value="t4" style="text;html=1;strokeColor=none;fillColor=none;align=center;verticalAlign=middle;whiteSpace=wrap;rounded=0;fontSize=14;fontColor=#FF0000;" parent="1" vertex="1">
                    <mxGeometry x="214" y="390" width="60" height="30" as="geometry"/>
                </mxCell>
                <mxCell id="70" value="" style="endArrow=none;dashed=1;html=1;strokeColor=#FF0000;fontSize=14;fontColor=#FF0000;" parent="1" edge="1">
                    <mxGeometry width="50" height="50" relative="1" as="geometry">
                        <mxPoint x="288" y="295" as="sourcePoint"/>
                        <mxPoint x="208" y="295" as="targetPoint"/>
                    </mxGeometry>
                </mxCell>
                <mxCell id="71" value="&lt;font style=&quot;font-size: 16px;&quot;&gt;O&lt;/font&gt;" style="text;html=1;strokeColor=none;fillColor=none;align=center;verticalAlign=middle;whiteSpace=wrap;rounded=0;rotation=-15;" parent="1" vertex="1">
                    <mxGeometry x="340" y="530" width="60" height="30" as="geometry"/>
                </mxCell>
                <mxCell id="73" value="&lt;font color=&quot;#0000cc&quot;&gt;t3&lt;/font&gt;" style="text;html=1;strokeColor=none;fillColor=none;align=center;verticalAlign=middle;whiteSpace=wrap;rounded=0;fontSize=14;fontColor=#FF0000;" vertex="1" parent="1">
                    <mxGeometry x="340" y="340" width="60" height="30" as="geometry"/>
                </mxCell>
                <mxCell id="74" value="ks" style="text;html=1;align=center;verticalAlign=middle;resizable=0;points=[];autosize=1;strokeColor=none;fillColor=none;fontColor=#0000CC;" vertex="1" parent="1">
                    <mxGeometry x="260" y="305" width="40" height="30" as="geometry"/>
                </mxCell>
                <mxCell id="77" value="phi" style="text;html=1;align=center;verticalAlign=middle;resizable=0;points=[];autosize=1;strokeColor=none;fillColor=none;fontColor=#0000CC;" vertex="1" parent="1">
                    <mxGeometry x="224" y="590" width="40" height="30" as="geometry"/>
                </mxCell>
                <mxCell id="78" value="" style="curved=1;endArrow=classic;html=1;strokeColor=#FF00FF;fontSize=14;fontColor=#000099;entryX=1;entryY=0.5;entryDx=0;entryDy=0;" edge="1" parent="1" target="33">
                    <mxGeometry width="50" height="50" relative="1" as="geometry">
                        <mxPoint x="310" y="570" as="sourcePoint"/>
                        <mxPoint x="254" y="560" as="targetPoint"/>
                        <Array as="points">
                            <mxPoint x="279" y="590"/>
                        </Array>
                    </mxGeometry>
                </mxCell>
            </root>
        </mxGraphModel>
    </diagram>
</mxfile>